<mxfile host="app.diagrams.net" modified="2021-03-05T06:33:57.268Z" agent="5.0 (Macintosh; Intel Mac OS X 10_15_7) AppleWebKit/537.36 (KHTML, like Gecko) Chrome/83.0.4103.97 Safari/537.36" etag="RcHxicYWAXpX-qcs96lu" version="14.2.7" type="github">
  <diagram id="7NTNxbpjhulmoF8kZ1Ea" name="Page-1">
    <mxGraphModel dx="1042" dy="523" grid="1" gridSize="10" guides="1" tooltips="1" connect="1" arrows="1" fold="1" page="1" pageScale="1" pageWidth="827" pageHeight="1169" math="0" shadow="0">
      <root>
        <mxCell id="0" />
        <mxCell id="1" parent="0" />
        <mxCell id="ai1ogb0KSx4yU6j5K33D-4" value="" style="edgeStyle=orthogonalEdgeStyle;rounded=0;orthogonalLoop=1;jettySize=auto;html=1;" edge="1" parent="1" source="ai1ogb0KSx4yU6j5K33D-2" target="ai1ogb0KSx4yU6j5K33D-3">
          <mxGeometry relative="1" as="geometry" />
        </mxCell>
        <mxCell id="ai1ogb0KSx4yU6j5K33D-2" value="应用运行时闪聊新消息来临" style="rounded=0;whiteSpace=wrap;html=1;" vertex="1" parent="1">
          <mxGeometry x="320" y="130" width="300" height="30" as="geometry" />
        </mxCell>
        <mxCell id="ai1ogb0KSx4yU6j5K33D-6" value="" style="edgeStyle=orthogonalEdgeStyle;rounded=0;orthogonalLoop=1;jettySize=auto;html=1;" edge="1" parent="1" source="ai1ogb0KSx4yU6j5K33D-3" target="ai1ogb0KSx4yU6j5K33D-5">
          <mxGeometry relative="1" as="geometry" />
        </mxCell>
        <mxCell id="ai1ogb0KSx4yU6j5K33D-3" value="&lt;pre style=&quot;background-color: rgb(255 , 255 , 255) ; font-family: &amp;#34;menlo&amp;#34; ; font-size: 10.5pt&quot;&gt;ChatMsgNotifyObserver&lt;/pre&gt;&lt;hr&gt;&lt;span style=&quot;background-color: rgb(248 , 249 , 250)&quot;&gt;设置&lt;/span&gt;&lt;span style=&quot;color: rgb(102 , 14 , 122) ; font-style: italic ; font-weight: bold ; background-color: rgb(255 , 255 , 255) ; font-family: &amp;#34;menlo&amp;#34; ; font-size: 10.5pt&quot;&gt;HAS_NEW_MSG&lt;/span&gt;标志为true&lt;br&gt;记录下发送者的&lt;span style=&quot;color: rgb(102 , 14 , 122) ; font-style: italic ; font-weight: bold ; background-color: rgb(255 , 255 , 255) ; font-family: &amp;#34;menlo&amp;#34; ; font-size: 10.5pt&quot;&gt;MOMOID&lt;/span&gt;" style="html=1;rounded=0;align=center;" vertex="1" parent="1">
          <mxGeometry x="378.75" y="190" width="182.5" height="90" as="geometry" />
        </mxCell>
        <mxCell id="ai1ogb0KSx4yU6j5K33D-11" value="" style="edgeStyle=orthogonalEdgeStyle;rounded=0;orthogonalLoop=1;jettySize=auto;html=1;" edge="1" parent="1" source="ai1ogb0KSx4yU6j5K33D-5" target="ai1ogb0KSx4yU6j5K33D-10">
          <mxGeometry relative="1" as="geometry" />
        </mxCell>
        <mxCell id="ai1ogb0KSx4yU6j5K33D-5" value="发送到主进程UI后&lt;br&gt;若在闪聊业务内，直接展示新消息UI提示" style="html=1;rounded=0;align=center;" vertex="1" parent="1">
          <mxGeometry x="350" y="320" width="240" height="60" as="geometry" />
        </mxCell>
        <mxCell id="ai1ogb0KSx4yU6j5K33D-13" value="" style="edgeStyle=orthogonalEdgeStyle;rounded=0;orthogonalLoop=1;jettySize=auto;html=1;" edge="1" parent="1" source="ai1ogb0KSx4yU6j5K33D-10" target="ai1ogb0KSx4yU6j5K33D-12">
          <mxGeometry relative="1" as="geometry" />
        </mxCell>
        <mxCell id="ai1ogb0KSx4yU6j5K33D-10" value="发送到主进程UI后" style="html=1;rounded=0;align=center;" vertex="1" parent="1">
          <mxGeometry x="410" y="420" width="120" height="40" as="geometry" />
        </mxCell>
        <mxCell id="ai1ogb0KSx4yU6j5K33D-15" value="" style="edgeStyle=orthogonalEdgeStyle;rounded=0;orthogonalLoop=1;jettySize=auto;html=1;" edge="1" parent="1" source="ai1ogb0KSx4yU6j5K33D-12" target="ai1ogb0KSx4yU6j5K33D-14">
          <mxGeometry relative="1" as="geometry" />
        </mxCell>
        <mxCell id="ai1ogb0KSx4yU6j5K33D-39" value="是" style="edgeLabel;html=1;align=center;verticalAlign=middle;resizable=0;points=[];" vertex="1" connectable="0" parent="ai1ogb0KSx4yU6j5K33D-15">
          <mxGeometry x="-0.64" y="-1" relative="1" as="geometry">
            <mxPoint as="offset" />
          </mxGeometry>
        </mxCell>
        <mxCell id="ai1ogb0KSx4yU6j5K33D-12" value="若在闪聊业务内" style="rhombus;whiteSpace=wrap;html=1;rounded=0;" vertex="1" parent="1">
          <mxGeometry x="390" y="510" width="160" height="50" as="geometry" />
        </mxCell>
        <mxCell id="ai1ogb0KSx4yU6j5K33D-24" value="" style="edgeStyle=orthogonalEdgeStyle;rounded=0;orthogonalLoop=1;jettySize=auto;html=1;" edge="1" parent="1" source="ai1ogb0KSx4yU6j5K33D-14" target="ai1ogb0KSx4yU6j5K33D-23">
          <mxGeometry relative="1" as="geometry" />
        </mxCell>
        <mxCell id="ai1ogb0KSx4yU6j5K33D-14" value="直接展示抽屉新消息UI提示" style="whiteSpace=wrap;html=1;rounded=0;" vertex="1" parent="1">
          <mxGeometry x="390" y="590" width="160" height="40" as="geometry" />
        </mxCell>
        <mxCell id="ai1ogb0KSx4yU6j5K33D-29" value="" style="edgeStyle=orthogonalEdgeStyle;rounded=0;orthogonalLoop=1;jettySize=auto;html=1;" edge="1" parent="1" source="ai1ogb0KSx4yU6j5K33D-23" target="ai1ogb0KSx4yU6j5K33D-28">
          <mxGeometry relative="1" as="geometry" />
        </mxCell>
        <mxCell id="ai1ogb0KSx4yU6j5K33D-23" value="&lt;span&gt;内存更新收到的最新的&lt;/span&gt;&lt;span style=&quot;color: rgb(102 , 14 , 122) ; font-weight: bold ; background-color: rgb(255 , 255 , 255) ; font-family: &amp;#34;menlo&amp;#34; ; font-size: 9pt&quot;&gt;latestNewMomoid&lt;/span&gt;" style="whiteSpace=wrap;html=1;rounded=0;" vertex="1" parent="1">
          <mxGeometry x="380" y="660" width="180" height="40" as="geometry" />
        </mxCell>
        <mxCell id="ai1ogb0KSx4yU6j5K33D-31" value="" style="edgeStyle=orthogonalEdgeStyle;rounded=0;orthogonalLoop=1;jettySize=auto;html=1;" edge="1" parent="1" source="ai1ogb0KSx4yU6j5K33D-28" target="ai1ogb0KSx4yU6j5K33D-30">
          <mxGeometry relative="1" as="geometry" />
        </mxCell>
        <mxCell id="ai1ogb0KSx4yU6j5K33D-38" value="是" style="edgeLabel;html=1;align=center;verticalAlign=middle;resizable=0;points=[];" vertex="1" connectable="0" parent="ai1ogb0KSx4yU6j5K33D-31">
          <mxGeometry x="-0.44" relative="1" as="geometry">
            <mxPoint as="offset" />
          </mxGeometry>
        </mxCell>
        <mxCell id="ai1ogb0KSx4yU6j5K33D-28" value="更新会话cell时&lt;br&gt;是否该cell的momoid等于&lt;span style=&quot;color: rgb(102 , 14 , 122) ; font-family: &amp;#34;menlo&amp;#34; ; font-weight: 700 ; background-color: rgb(255 , 255 , 255)&quot;&gt;latestNewMomoid&lt;/span&gt;" style="rhombus;whiteSpace=wrap;html=1;rounded=0;" vertex="1" parent="1">
          <mxGeometry x="380" y="720" width="180" height="120" as="geometry" />
        </mxCell>
        <mxCell id="ai1ogb0KSx4yU6j5K33D-33" value="" style="edgeStyle=orthogonalEdgeStyle;rounded=0;orthogonalLoop=1;jettySize=auto;html=1;" edge="1" parent="1" source="ai1ogb0KSx4yU6j5K33D-30" target="ai1ogb0KSx4yU6j5K33D-32">
          <mxGeometry relative="1" as="geometry" />
        </mxCell>
        <mxCell id="ai1ogb0KSx4yU6j5K33D-30" value="更新抽屉上的头像avatar" style="whiteSpace=wrap;html=1;rounded=0;" vertex="1" parent="1">
          <mxGeometry x="390" y="880" width="160" height="40" as="geometry" />
        </mxCell>
        <mxCell id="ai1ogb0KSx4yU6j5K33D-32" value="结束" style="shape=parallelogram;perimeter=parallelogramPerimeter;whiteSpace=wrap;html=1;fixedSize=1;rounded=0;" vertex="1" parent="1">
          <mxGeometry x="430" y="940" width="80" height="40" as="geometry" />
        </mxCell>
        <mxCell id="ai1ogb0KSx4yU6j5K33D-34" value="" style="endArrow=classic;html=1;exitX=1;exitY=0.5;exitDx=0;exitDy=0;entryX=1;entryY=0.5;entryDx=0;entryDy=0;" edge="1" parent="1" source="ai1ogb0KSx4yU6j5K33D-28" target="ai1ogb0KSx4yU6j5K33D-32">
          <mxGeometry width="50" height="50" relative="1" as="geometry">
            <mxPoint x="600" y="850" as="sourcePoint" />
            <mxPoint x="650" y="800" as="targetPoint" />
            <Array as="points">
              <mxPoint x="580" y="780" />
              <mxPoint x="580" y="960" />
            </Array>
          </mxGeometry>
        </mxCell>
        <mxCell id="ai1ogb0KSx4yU6j5K33D-36" value="否" style="edgeLabel;html=1;align=center;verticalAlign=middle;resizable=0;points=[];" vertex="1" connectable="0" parent="ai1ogb0KSx4yU6j5K33D-34">
          <mxGeometry x="-0.9111" y="-1" relative="1" as="geometry">
            <mxPoint as="offset" />
          </mxGeometry>
        </mxCell>
        <mxCell id="ai1ogb0KSx4yU6j5K33D-35" value="" style="endArrow=classic;html=1;exitX=0;exitY=0.5;exitDx=0;exitDy=0;entryX=0;entryY=0.5;entryDx=0;entryDy=0;" edge="1" parent="1" source="ai1ogb0KSx4yU6j5K33D-12" target="ai1ogb0KSx4yU6j5K33D-32">
          <mxGeometry width="50" height="50" relative="1" as="geometry">
            <mxPoint x="240" y="660" as="sourcePoint" />
            <mxPoint x="370" y="950" as="targetPoint" />
            <Array as="points">
              <mxPoint x="370" y="535" />
              <mxPoint x="370" y="960" />
            </Array>
          </mxGeometry>
        </mxCell>
        <mxCell id="ai1ogb0KSx4yU6j5K33D-40" value="否" style="edgeLabel;html=1;align=center;verticalAlign=middle;resizable=0;points=[];" vertex="1" connectable="0" parent="ai1ogb0KSx4yU6j5K33D-35">
          <mxGeometry x="-0.9689" y="-1" relative="1" as="geometry">
            <mxPoint as="offset" />
          </mxGeometry>
        </mxCell>
      </root>
    </mxGraphModel>
  </diagram>
</mxfile>
